<svg  viewBox="0 0 298 356" fill="none" xmlns="http://www.w3.org/2000/svg">
<g filter="url(#filter0_d_1_3)">
<path d="M124.629 93.621C123.043 93.442 123.276 97.544 125.285 96.827C126.973 96.224 126.181 92.846 124.629 93.621ZM125.137 96.107C124.678 96.355 124.43 95.905 124.362 95.518C124.335 95.357 124.209 94.244 124.641 94.337C124.77 94.365 124.865 94.322 124.929 94.251C124.933 94.249 124.936 94.249 124.94 94.247C125.41 93.941 125.803 95.746 125.137 96.107Z" fill="#2CFFEA"/>
<path d="M127.582 97.357C127.525 97.326 127.461 97.305 127.383 97.311C126.82 97.355 126.262 97.69 126.108 98.258C125.967 98.773 126.206 99.367 126.719 99.567C127.264 99.779 127.905 99.509 128.22 99.037C128.566 98.519 128.49 97.849 128.094 97.384C127.94 97.204 127.721 97.237 127.582 97.357ZM127.671 98.567C127.56 98.798 127.256 98.997 126.997 98.902C126.79 98.827 126.734 98.584 126.816 98.391C126.927 98.125 127.228 98.039 127.49 98.018C127.547 98.014 127.594 97.998 127.635 97.976C127.736 98.157 127.768 98.366 127.671 98.567Z" fill="#2CFFEA"/>
<path d="M123.18 100.672C122.871 98.733 122.588 96.789 122.256 94.854C122.083 93.845 121.912 93.013 120.762 92.955C120.668 92.93 120.565 92.943 120.467 93.027C119.927 93.489 120.107 93.923 120.228 94.604C120.488 96.069 120.79 97.528 121.081 98.987C121.136 99.263 121.199 99.537 121.255 99.813C121.093 99.128 120.934 98.442 120.774 97.756C120.55 96.801 119.897 89.915 117.664 91.685C117.653 91.693 117.649 91.704 117.641 91.713C117.408 91.616 117.051 91.864 117.152 92.198C118.822 97.738 120.326 103.323 121.669 108.951C121.704 109.101 121.811 109.184 121.929 109.217C122.094 109.404 122.426 109.436 122.516 109.135C122.738 108.392 122.792 107.672 122.753 106.951C122.833 107.322 122.905 107.695 122.986 108.066C123.036 108.294 123.261 108.434 123.486 108.338C124.158 108.052 124.192 107.507 124.159 106.832C124.057 104.796 123.499 102.688 123.18 100.672ZM122.063 107.583C120.817 102.457 119.438 97.366 117.922 92.312C117.985 92.307 118.05 92.29 118.112 92.24C118.74 91.742 119.615 95.941 119.68 96.219C120.013 97.645 120.347 99.071 120.681 100.496C121.178 102.622 122.203 105.26 122.063 107.583ZM122.195 100.899C121.966 99.777 121.741 98.654 121.52 97.531C121.423 97.042 120.675 94.413 120.849 93.724C122.007 94.291 122.316 99.801 122.472 100.78C122.574 101.423 123.425 105.004 123.433 106.745C123.012 104.798 122.594 102.851 122.195 100.899Z" fill="#2CFFEA"/>
<path d="M264.779 244.306C264.468 244.07 264.173 243.889 263.883 243.734C263.854 243.653 263.789 243.579 263.685 243.529C262.494 242.965 261.268 243.028 260.05 243.29C259.977 243.271 259.898 243.261 259.813 243.258C255.785 243.113 251.818 242.558 247.943 241.426C246.255 240.933 244.59 240.346 242.968 239.664C242.27 239.37 240.483 238.354 239.194 237.819C239.194 237.811 239.196 237.805 239.195 237.798C238.299 233.165 236.864 228.68 235.395 224.203C234.186 218.421 232.399 212.766 229.973 207.359C228.813 204.775 227.485 201.814 224.876 200.38C223.235 199.478 221.341 199.556 219.848 198.328C218.22 196.99 216.893 195.026 215.594 193.377C212.855 189.897 211.194 186.071 209 182.289C207.268 179.301 204.764 177.026 202.158 174.814C195.424 169.097 188.647 163.431 181.884 157.749C181.805 157.657 181.725 157.565 181.648 157.473C178.499 153.548 177.363 148.547 176.342 143.688C176.324 143.6 176.278 143.539 176.223 143.492C175.76 141.626 175.166 139.781 174.656 137.944C173.439 133.563 172.196 129.225 170.396 125.104C173.23 126.54 176.859 126.712 179.932 127.932C182.858 129.094 184.628 131.893 187.696 132.827C190.404 133.652 193.311 133.282 196.067 132.82C201.128 138.117 207.456 141.633 214.662 143.169C214.883 143.216 215.118 143.155 215.319 143.033C217.403 145.478 219.892 148.853 222.877 150.468C222.022 151.172 221.424 152.072 221.446 153.415C221.467 154.786 222.112 155.712 223.042 156.333C223.137 156.442 223.237 156.548 223.349 156.649C224.853 158.013 227.203 158.341 228.917 157.364C229.046 157.458 229.18 157.547 229.32 157.631C230.28 158.202 231.383 158.362 232.415 158.162C233.428 158.342 234.473 158.387 235.471 158.341C235.504 158.34 235.533 158.331 235.564 158.327C235.969 158.484 236.404 158.594 236.867 158.645C241.324 159.137 244.042 154.87 244.35 150.929C244.801 145.174 241.365 139.979 237.755 135.829C236.068 133.889 232.376 129.029 229.008 127.518C228.937 127.148 228.845 126.789 228.734 126.44C228.3 124.812 227.733 123.236 226.654 121.909C224.221 116.321 220.521 111.365 215.726 107.522C212.241 104.73 208.591 103.192 205.91 99.482C204.07 96.937 201.746 95.294 198.556 94.98C195.928 94.72 194.42 94.647 192.195 92.923C190.732 91.791 189.349 90.614 187.783 89.614C184.762 87.684 181.484 86.165 178.054 85.122C171.48 83.123 164.575 82.849 157.891 84.299C157.286 82.37 156.633 80.457 155.943 78.556C155.351 75.623 152.669 72.773 150.585 71.084C150.567 71.069 150.547 71.065 150.528 71.055C150.203 70.787 149.873 70.524 149.523 70.28C149.472 70.244 149.419 70.229 149.368 70.221C146.43 64.641 141.415 60.51 135.451 58.335C133.213 57.519 130.887 56.973 128.528 56.657C128.213 55.608 127.8 54.598 127.303 53.616C126.623 51.368 125.045 49.518 122.837 48.281C118.757 45.994 113.904 46.856 109.638 48.089C99.674 50.966 89.786 54.636 80.511 59.287C71.348 63.88 62.683 69.624 55.538 77.022C53.882 78.737 50.425 81.449 50.576 84.255C50.553 84.346 50.533 84.437 50.515 84.527C50.35 85.011 50.315 85.526 50.412 86.037C50.293 86.277 50.254 86.563 50.353 86.875C56.982 107.807 64.306 128.509 72.306 148.956C71.99 150.182 71.767 151.432 71.65 152.687C71.517 154.123 71.691 155.635 71.421 157.054C71.052 158.991 69.858 160.086 68.935 161.694C66.277 166.327 67.785 172.967 69.438 177.678C70.644 181.115 72.431 184.268 74.672 187.073C75.585 190.738 78.826 193.414 81.891 195.638C81.999 195.717 82.108 195.722 82.201 195.69C82.375 195.836 82.541 195.988 82.72 196.13C82.76 196.161 82.801 196.18 82.841 196.193C82.961 196.304 83.075 196.421 83.199 196.531C83.257 196.581 83.315 196.6 83.373 196.608C84.673 200.464 87.572 203.8 91.094 206.383C90.991 206.522 90.92 206.696 90.905 206.918C90.522 212.481 91.277 218 93.384 223.179C95.042 227.256 97.643 232.283 101.727 234.367C105.609 236.346 111.205 235.81 115.246 234.563C115.286 234.55 115.322 234.534 115.362 234.522C114.723 237.254 114.642 240.054 115.833 242.617C115.813 242.712 115.803 242.807 115.806 242.903C115.25 244.797 115.744 246.79 117.09 248.248C117.078 250.788 114.647 251.092 113.909 253.364C113.192 255.573 114.07 258.393 114.415 260.581C115.269 265.991 115.731 272.239 117.83 277.323C118.646 279.298 120.342 280.593 122.307 281.516C122.982 283.186 123.971 284.644 125.238 285.912C125.627 287.701 126.233 289.4 127.061 291.021C127.133 291.198 127.202 291.376 127.277 291.553C127.312 291.636 127.368 291.684 127.429 291.716C127.457 291.767 127.488 291.816 127.516 291.865C126.192 295.077 126.432 299.353 126.324 302.45C126.139 307.743 125.592 314.54 127.349 319.589C128.553 323.049 132.483 324.46 135.714 325.407C139.674 326.567 144.134 326.988 148.161 325.901C148.199 325.891 148.232 325.879 148.269 325.868C150.444 325.549 152.617 324.94 154.165 323.349C154.284 323.266 154.386 323.161 154.455 323.031C154.471 323.013 154.487 322.998 154.502 322.98C155.912 321.288 156.128 318.876 156.131 316.565C156.71 312.884 156.37 308.685 156.471 304.86C156.682 296.851 157.962 287.083 153.225 280.127C153.233 280.117 153.24 280.108 153.246 280.099C153.251 280.096 153.256 280.094 153.26 280.091C153.286 280.417 153.772 280.544 153.948 280.191C154.246 279.592 154.512 278.984 154.762 278.372C155.528 276.959 155.894 275.154 156.225 273.848C156.871 271.299 157.204 268.694 157.409 266.077C157.493 265.133 157.562 264.187 157.623 263.242C158.529 258.554 158.928 253.763 158.95 248.945C158.983 248.362 159.005 247.779 159.014 247.196C159.121 246.005 159.202 244.81 159.191 243.614C159.178 242.308 159.002 241.051 158.771 239.795C159.512 234.624 159.32 229.428 158.188 224.327C159.83 221.933 161.069 219.257 161.797 216.401C162.804 212.449 162.69 208.33 161.912 204.29C162.134 204.269 162.326 204.198 162.502 204.051C162.553 204.056 162.606 204.054 162.66 204.033C162.912 203.938 163.155 203.829 163.391 203.709C163.411 203.758 163.44 203.807 163.485 203.85C163.671 204.023 163.856 204.196 164.042 204.369C164.499 204.904 165.034 205.395 165.609 205.856C165.734 206.085 165.935 206.267 166.205 206.34C167.667 207.643 169.176 208.887 170.768 210.032C175.977 215.105 182.364 218.986 185.609 225.858C187.186 229.197 188.935 233.115 192.897 234.09C195.228 234.664 196.81 233.422 198.375 235.859C199.646 237.838 200.79 239.776 202.353 241.572C206.341 246.152 210.732 250.496 216.171 251.797C216.137 251.875 216.136 251.97 216.189 252.072C216.362 252.404 216.535 252.737 216.708 253.069C216.712 253.078 216.717 253.086 216.721 253.094C216.828 253.301 216.936 253.508 217.043 253.715C217.085 253.794 217.145 253.841 217.209 253.872C217.235 253.908 217.26 253.944 217.286 253.98C218.685 257.253 220.21 260.465 221.918 263.59C223.136 265.817 224.326 268.139 226.453 269.633C228.969 271.402 232.289 272.407 235.157 273.437C238.449 274.618 241.867 275.58 245.36 275.89C251.075 276.397 257.148 275.153 261.47 271.182C263.087 269.697 264.384 267.969 265.47 266.107C266.312 264.928 266.971 263.586 267.607 262.336C268.457 260.66 269.132 258.935 269.519 257.127C269.722 256.978 269.863 256.738 269.878 256.399C270.08 251.904 268.477 247.127 264.779 244.306ZM224.128 152.237C224.304 152.037 224.502 151.862 224.711 151.7C225.263 152.049 225.888 152.282 226.526 152.355C226.551 152.8 226.638 153.242 226.769 153.678C226.862 154.246 227.024 154.798 227.261 155.313C225.357 155.154 222.201 154.44 224.128 152.237ZM227.992 146.208C227.935 146.453 227.833 146.695 227.702 146.926C227.383 147.28 227.063 147.634 226.743 147.988C226.597 148.091 226.445 148.184 226.288 148.254C225.376 148.658 224.383 148.583 223.469 148.266C223.326 148.167 223.186 148.069 223.053 147.956C222.437 147.519 221.898 146.959 221.375 146.398C223.094 144.641 225.17 143.403 227.626 143.448C227.636 143.666 227.672 143.888 227.709 144.098C227.84 144.85 228.177 145.426 227.992 146.208ZM229.659 154.527C229.342 154.186 229.094 153.772 228.918 153.329C229.924 152.879 230.969 152.643 232.071 152.633C232.147 153.881 232.339 155.095 232.841 156.093C231.642 155.886 230.496 155.424 229.659 154.527ZM229.67 151.236C229.844 151.08 230.008 150.916 230.159 150.737C230.252 150.638 230.329 150.532 230.409 150.426C230.459 150.359 230.512 150.295 230.557 150.225C230.625 150.122 230.687 150.018 230.745 149.91C231.011 149.461 231.22 148.981 231.37 148.484C231.683 149.238 231.831 150.107 231.92 150.872C231.144 150.851 230.387 150.973 229.67 151.236ZM242.11 151.618C241.899 152.929 241.382 154.245 240.42 155.175C238.052 157.467 235.557 156.146 234.333 153.438C234.215 153.178 234.144 152.892 234.089 152.596C234.169 152.54 234.25 152.484 234.331 152.429H234.332C236.895 151.578 239.46 150.892 242.155 151.229C242.139 151.36 242.131 151.489 242.11 151.618ZM228.145 129.616C229.102 130.972 231.592 132.473 232.43 133.291C233.99 134.814 235.484 136.426 236.873 138.105C239.382 141.135 241.82 144.844 242.195 148.853C242.082 148.838 241.967 148.829 241.854 148.825C239.277 148.735 236.454 149.638 233.931 150.29C233.91 149.676 233.865 149.074 233.701 148.535C233.52 147.936 233.285 147.395 233.002 146.908C233.016 146.842 233.015 146.768 232.975 146.686C232.492 145.677 230.443 142.175 228.752 142.171C228.598 142.138 228.443 142.114 228.288 142.094C227.387 141.836 226.434 141.89 225.498 142.156C224.712 142.308 223.956 142.603 223.252 143.016C222.283 143.372 220.599 144.107 220.229 145.166C219.049 143.908 217.887 142.631 216.723 141.358C218.246 135.649 222.605 131.389 228.145 129.616ZM151.149 77.22C151.548 77.863 151.908 78.544 152.231 79.245C152.345 79.601 152.442 79.908 152.52 80.134C153.429 82.761 154.153 85.447 154.791 88.151C155.892 92.808 157.379 97.856 157.333 102.702C157.325 102.911 157.322 103.119 157.312 103.328C156.784 105.758 155.574 108.08 153.253 110.355C145.254 118.195 132.116 121.909 121.356 118.138C114.776 115.833 113.333 109.884 111.23 103.937C109.908 100.198 108.608 97.107 111.267 93.634C113.057 91.297 115.039 89.113 117.19 87.102C124.881 79.906 134.469 75.105 144.755 73.108C147.394 73.501 149.396 75.244 151.149 77.22ZM145.945 68.736C146.355 69.315 146.738 69.915 147.093 70.536C135.831 72.168 125.165 77.049 116.679 84.668C114.638 86.501 112.722 88.483 110.96 90.588C109.882 91.877 108.374 93.435 107.552 95.109C107.659 93.254 108.273 91.498 109.216 89.847C110.338 88.161 111.814 86.638 113.137 85.389C116.075 82.618 119.343 80.142 122.696 77.896C129.697 73.207 137.53 69.724 145.945 68.736ZM131.917 59.505C133.617 59.939 135.283 60.501 136.879 61.248C139.984 62.701 142.691 64.751 144.836 67.301C138.82 68.269 133.025 70.196 127.672 72.991C124.727 74.462 121.885 76.147 119.168 78.026C115.522 80.549 111.666 83.375 109.141 87.088C107.613 89.336 106.895 91.629 106.793 94.024C106.693 94.769 106.705 95.527 106.854 96.292C106.871 96.634 106.911 96.98 106.962 97.329C106.916 99.431 108.197 101.774 108.846 103.61C109.971 106.792 110.901 110.167 112.4 113.197C117.118 122.73 130.967 122.837 139.842 120.365C146.914 118.396 155.305 113.656 158.601 106.683C157.639 119.983 141.931 127.889 129.28 127.17C118.932 126.582 109.296 121.562 102.122 114.215C102.111 114.179 102.102 114.143 102.079 114.108C100.467 111.518 98.852 108.928 97.239 106.338C97.226 106.318 97.21 106.308 97.195 106.292C96.671 105.235 96.063 104.186 95.669 103.192C93.575 97.917 92.96 92.077 93.808 86.47C95.773 73.489 106.018 63.217 118.717 60.432C118.974 60.376 119.169 60.252 119.309 60.091C119.803 60.01 120.298 59.938 120.794 59.871C121.462 59.834 122.127 59.755 122.794 59.636C125.825 59.337 128.872 59.294 131.917 59.505ZM76.574 95.486C75.72 98.542 76.408 102.267 77.082 105.101C77.381 106.357 77.746 107.592 78.135 108.82C78.854 112.296 79.833 115.717 80.906 119.107C81.229 121.283 81.704 123.425 82.318 125.548C82.34 125.697 82.363 125.847 82.385 125.997C82.183 126.521 82.016 127.062 81.886 127.619C80.448 122.634 79.009 117.649 77.57 112.664C76.675 109.565 75.776 106.468 74.887 103.367C74.282 101.254 72.642 94.981 75.101 93.443C75.841 93.422 76.581 93.35 77.322 93.203C77.368 93.212 77.414 93.222 77.461 93.233C77.277 93.536 77.12 93.852 76.992 94.183C76.81 94.478 76.638 94.782 76.478 95.1C76.402 95.252 76.464 95.394 76.574 95.486ZM79.843 109.199C79.607 108.047 79.382 106.892 79.18 105.733C78.551 102.116 77.742 97.868 78.984 94.311C79.568 93.428 80.32 92.617 81.092 91.874C84.271 90.319 87.053 87.961 90.121 86.158C90.116 86.427 90.126 86.697 90.129 86.967C89.763 90.365 90.293 93.842 90.983 97.179C91.925 101.739 93.453 106.148 95.461 110.345C94.398 111.932 91.869 113.26 90.917 114.733C89.691 116.629 89.855 117.999 87.987 119.259C86.317 120.385 84.879 121.763 83.787 123.355C82.473 118.637 81.158 113.918 79.843 109.199ZM100.25 67.491C100.253 67.489 100.256 67.487 100.258 67.485L100.256 67.487C100.254 67.488 100.252 67.489 100.25 67.491ZM110.729 49.991C116.052 48.574 125.854 48.238 125.538 56.28C125.537 56.315 125.542 56.345 125.544 56.379C125.017 56.351 124.488 56.332 123.96 56.325C122.036 56.3 119.95 56.248 118.317 57.108C118.253 57.065 118.172 57.04 118.071 57.058C116.424 57.335 114.845 57.794 113.317 58.375C106.465 60.665 100.221 64.573 95.614 70.221C95.563 70.244 95.514 70.278 95.473 70.334C95.339 70.511 95.215 70.691 95.087 70.87C95.06 70.906 95.03 70.939 95.002 70.974C94.991 70.988 94.99 71.002 94.981 71.017C93.473 73.161 92.331 75.49 91.558 77.997C91.441 78.012 91.335 78.076 91.297 78.21C90.794 79.995 90.46 81.799 90.278 83.615C86.814 85.427 83.876 88.046 80.362 89.823C74.632 92.72 69.061 90.365 63.349 88.663C62.844 88.513 62.262 88.374 61.645 88.236C60.646 87.44 59.878 86.402 59.377 85.171C59.373 84.984 59.376 84.8 59.383 84.616C59.714 82.877 60.805 80.866 61.654 79.461C62.006 78.983 62.38 78.519 62.765 78.064C63.872 76.999 65.02 75.974 66.199 74.989C70.665 71.258 75.527 67.979 80.462 64.905C90.03 58.942 100.192 53.982 110.729 49.991ZM57.286 78.275C60.758 74.722 64.61 71.543 68.687 68.712C72.648 65.962 76.822 63.547 81.124 61.379C76.946 64.089 72.971 67.152 69.08 70.14C65.393 72.971 61.802 76.023 58.992 79.756C58.313 80.658 57.553 81.872 57.095 83.12C56.594 83.916 56.272 84.738 56.32 85.539C56.356 86.146 56.588 86.64 56.936 87.046C56.217 86.794 55.563 86.499 55.034 86.139C50.857 83.301 55.196 80.414 57.286 78.275ZM57.953 103.244C56.877 100.051 55.814 96.853 54.77 93.649C56.175 93.995 57.429 94.305 58.304 95.278C58.516 96.059 58.654 96.887 58.84 97.652C59.091 98.675 59.341 99.698 59.591 100.721C59.693 101.138 59.917 101.659 59.925 102.085C59.978 102.169 60.017 102.249 60.047 102.324C60.007 102.561 59.946 102.803 59.856 103.013C59.816 103.034 59.79 103.058 59.746 103.078C59.743 103.084 59.74 103.089 59.737 103.095C59.629 103.142 59.502 103.182 59.345 103.209C59.19 103.417 59.044 103.551 58.904 103.618C58.712 103.581 58.492 103.489 58.233 103.309C58.135 103.24 58.037 103.225 57.953 103.244ZM58.421 104.622C58.923 104.816 59.46 104.919 59.939 104.808C60.625 105.033 61.257 105.009 61.792 103.952C62.682 102.193 61.021 99.146 60.507 97.515C60.039 96.029 59.691 92.744 58.062 91.968C57.664 91.778 57.289 91.789 56.917 91.859C56.579 91.859 56.261 91.926 55.928 91.939C55.845 91.884 55.763 91.825 55.683 91.759C54.788 90.672 54.226 89.422 53.972 88.005C56.862 89.299 60.204 89.955 63.231 90.856C66.291 91.768 69.467 92.948 72.673 93.33C70.604 96.197 71.694 99.945 72.576 103.028C75.427 112.996 78.325 122.95 81.2 132.91C81.259 133.113 81.363 133.273 81.49 133.401C81.387 134.005 81.182 134.614 80.774 135.271C80.004 136.508 79.153 137.298 78.181 138.327C76.209 140.414 74.626 142.828 73.495 145.468C73.451 145.571 73.418 145.678 73.375 145.781C68.088 132.171 63.103 118.449 58.421 104.622ZM81.473 190.455C81.463 190.577 81.452 190.698 81.443 190.82C80.387 189.978 79.387 189.079 78.451 188.122C78.144 187.174 77.969 186.185 77.935 185.186C78.113 184.301 78.291 183.417 78.469 182.534C78.666 181.91 78.897 181.298 79.16 180.698C80.334 178.698 81.668 176.808 83.312 175.21C84.003 174.621 84.734 174.075 85.5 173.576C85.666 173.492 85.83 173.404 85.999 173.325C90.157 171.387 94.992 171.217 99.223 172.84C99.886 173.763 100.55 174.686 101.213 175.609C101.126 175.852 100.998 176.072 100.839 176.271C100.278 176.03 99.696 175.855 99.106 175.71C97.938 175.333 96.74 175.14 95.548 175.173C92.134 175.032 88.7 176.204 86.171 178.61C85.15 179.582 84.348 180.691 83.709 181.886C81.996 184.27 81.145 187.317 81.473 190.455ZM99.096 171.404C99.098 171.404 99.1 171.405 99.102 171.405C99.102 171.405 99.102 171.407 99.102 171.409C99.1 171.408 99.098 171.406 99.096 171.404ZM103.321 160.776C103.329 160.542 103.351 160.315 103.385 160.091C103.433 159.884 103.486 159.678 103.541 159.474C103.593 159.391 103.65 159.311 103.701 159.228C103.782 159.14 103.846 159.036 103.889 158.917C104.91 157.218 105.79 155.446 106.55 153.612C106.856 153.09 107.184 152.623 107.545 152.372C109.359 151.113 108.929 152.421 108.543 153.75C108.283 154.644 108.006 155.524 107.806 156.435C106.835 160.843 106.795 165.567 106.932 170.065C107.082 175.027 109.288 179.341 109.592 184.253C109.406 183.965 109.193 183.69 108.933 183.434C108.465 182.976 107.875 182.662 107.248 182.39C107.354 182.294 107.41 182.151 107.326 182.001C107.227 181.824 107.119 181.656 107.015 181.485C106.505 179.866 105.422 178.672 104.095 177.706C104.166 176.943 104.158 176.203 104.115 175.609C104.002 174.048 103.545 172.513 102.803 171.138C102.125 169.882 100.183 168.294 100.894 167.078C101.326 166.339 102.511 165.905 103.007 164.999C103.868 163.435 103.269 162.388 103.321 160.776ZM84.953 190.284C86.739 185.216 90.592 179.724 96.28 180.086C97.165 180.446 98.038 180.888 98.984 181.322C98.856 181.856 98.728 182.39 98.601 182.925C98.462 182.824 98.255 182.817 98.108 182.991C97.537 183.668 97.558 184.525 98.48 184.692C98.526 184.658 98.582 184.63 98.659 184.629C100.762 184.569 103.098 184.314 105.193 184.826C106.989 185.099 109.3 185.894 108.504 187.885C108.504 189.031 107.932 190.288 106.879 190.69C106.846 190.703 106.811 190.707 106.777 190.717C106.746 190.785 106.693 190.847 106.601 190.884C105.24 191.433 103.429 191.046 102.033 190.548C101.74 190.557 101.448 190.596 101.157 190.668C101.159 190.733 101.16 190.798 101.162 190.862C102.98 191.803 104.773 192.126 106.779 192.601C106.976 192.649 107.158 192.709 107.33 192.779C107.581 192.758 107.801 192.791 107.992 192.888C108.103 192.867 108.223 192.89 108.32 192.993C109.268 194.013 110.393 196.633 108.89 197.708C108.489 197.996 107.954 198.034 107.401 197.974C107.329 198.005 107.248 198.02 107.156 197.995C106.164 197.72 105.111 197.834 104.199 197.355C103.922 197.305 103.644 197.255 103.368 197.206C103.295 197.193 103.242 197.16 103.196 197.121C102.454 196.947 101.736 196.705 101.05 196.341C100.924 196.336 100.799 196.332 100.674 196.328C100.356 196.317 100.083 196.771 100.42 196.971C101.348 197.519 102.3 197.997 103.275 198.412C103.326 198.459 103.384 198.504 103.451 198.545C104.154 198.97 104.938 199.215 105.727 199.298C106.732 199.6 107.757 199.84 108.81 200.01C108.929 200.03 109.025 199.98 109.093 199.903C109.106 199.95 109.099 199.999 109.105 200.047C109.279 200.071 109.44 200.205 109.42 200.43C109.285 201.995 108.814 203.896 106.89 203.883C106.092 203.878 105.248 203.654 104.403 203.318C102.84 202.824 101.355 202.154 99.948 201.309C99.76 201.221 99.573 201.13 99.389 201.034C99.217 201.032 99.068 201.061 98.944 201.121C98.026 202.517 100.861 203.75 101.818 204.27C101.896 204.313 101.976 204.349 102.054 204.391C102.347 204.573 102.648 204.745 102.959 204.906C103.261 205.098 103.61 205.241 103.999 205.333C104.801 205.692 105.61 206.033 106.421 206.392C107.316 206.787 107.562 206.704 107.454 207.784C107.433 208.013 107.397 208.191 107.351 208.34C107.33 208.386 107.308 208.432 107.286 208.476C106.736 208.961 106.118 209.354 105.439 209.658C105.043 209.812 104.639 209.948 104.233 210.075C102.629 209.804 100.794 208.977 99.645 208.561C91.941 205.77 83.542 198.97 84.953 190.284ZM142.666 149.241C144.354 146.721 148.64 147.803 148.693 151.44C148.74 154.583 146.343 156.265 143.621 156.666C143.776 156.464 143.927 156.257 144.059 156.031C145.439 153.651 144.884 150.562 142.666 149.241ZM150.256 148.762C148.688 145.491 144.583 144.882 142.045 146.779C143.254 145.47 144.893 144.597 146.722 144.526C146.791 144.536 146.857 144.539 146.927 144.552C149.546 145.021 152.201 146.712 153.006 149.235C153.131 151.868 151.808 154.769 149.783 156.474C149.063 156.888 148.271 157.201 147.445 157.398C150.324 155.65 152.056 152.516 150.256 148.762ZM142.145 155.092C141.356 156.422 139.615 157.22 138.31 157.925C136.567 158.868 134.872 159.74 133.309 160.98C130.091 163.534 127.607 166.917 125.581 170.459C123.45 174.185 121.808 178.145 120.026 182.042C118.429 185.533 115.959 192.229 111.95 194.196C111.806 194.318 111.669 194.446 111.52 194.564C111.328 194.718 110.952 194.622 110.942 194.34C110.912 193.506 110.823 192.685 110.625 191.873C110.528 191.481 110.223 190.833 110.305 190.394C110.368 190.058 110.497 189.943 110.748 189.738C111.193 189.373 111.622 189.07 112.009 188.695C111.996 188.591 112.021 188.479 112.113 188.387C113.017 187.483 113.817 186.493 114.533 185.444C114.565 185.383 114.598 185.326 114.631 185.265C116.923 180.921 118.693 176.301 120.874 171.9C125.272 163.025 131.322 154.513 141.088 151.224C141.26 151.166 141.392 151.081 141.491 150.98C143.006 151.648 142.866 153.875 142.145 155.092ZM129.549 193.055C129.024 201.071 128.119 210.104 124.191 217.223C122.83 219.689 120.823 222.256 118.419 224.284C118.333 224.228 118.237 224.18 118.12 224.147C117.057 223.854 116.035 223.495 115.049 223.082C114.867 222.294 114.687 221.505 114.506 220.718C115.319 221.55 116.285 222.252 117.329 222.514C118.045 222.693 118.707 222.447 118.593 221.589C118.529 221.102 118.136 220.856 117.808 220.538C116.867 219.625 115.936 218.803 115.173 217.72C114.402 216.625 113.779 215.443 113.239 214.222C113.233 214.214 113.226 214.21 113.221 214.201C111.727 211.766 110.946 209.088 110.955 206.227C110.959 205.016 110.861 203.635 111.24 202.477C111.865 200.569 112.199 199.15 111.304 197.222C111.224 197.047 111.292 196.899 111.411 196.811C111.399 196.779 111.39 196.747 111.378 196.714C115.976 195.669 118.542 189.967 120.456 186.134C123.028 180.984 125.015 175.499 127.994 170.569C127.99 170.818 128.001 171.061 128.023 171.3C128.023 171.303 128.022 171.305 128.022 171.308C128.017 171.353 128.025 171.391 128.033 171.429C128.062 171.668 128.106 171.907 128.163 172.144C126.995 174.239 127.546 177.063 128.918 178.906C129.143 179.208 129.431 179.322 129.713 179.314C129.734 179.489 129.761 179.662 129.792 179.833L129.8 180.506C129.099 184.593 129.792 189.343 129.549 193.055ZM96.756 211.716C96.462 210.836 96.139 209.994 95.767 209.214C96.491 209.571 97.221 209.897 97.954 210.193L97.955 210.195C102.37 217.216 108.325 223.281 116.333 225.834C115.395 226.438 114.413 226.944 113.4 227.331C106.615 223.748 100.648 218.354 96.756 211.716ZM110.391 228.078C108.683 228.27 106.924 228.073 105.159 227.351C101.389 225.81 99.788 222.065 98.583 218.03C101.884 222.031 105.924 225.414 110.391 228.078ZM114.131 222.669C114.137 222.662 114.142 222.655 114.147 222.648C114.153 222.655 114.156 222.665 114.162 222.671C114.163 222.676 114.165 222.68 114.166 222.684C114.154 222.68 114.143 222.675 114.131 222.669ZM130.725 172.448C131.936 171.441 133.894 171.24 135.335 171.771C138.049 172.771 138.539 176.369 136.584 178.242C136.277 176.27 134.961 174.504 132.713 174.569C131.234 174.612 130.394 175.376 129.981 176.42C129.469 175.058 129.55 173.424 130.725 172.448ZM136.516 186.085C136.698 184.242 136.87 182.307 136.659 180.493C136.911 180.533 137.182 180.489 137.444 180.311C137.674 180.155 137.881 179.983 138.077 179.805C138.151 179.948 138.265 180.08 138.438 180.191C148.697 186.716 157.649 197.647 155.582 210.546C154.636 216.449 151.382 222.15 146.019 225.065C139.684 228.506 132.101 227.671 125.204 226.816C130.57 219.417 133.606 211.34 134.914 202.252C135.682 196.892 135.982 191.471 136.516 186.085ZM134.768 166.146C134.744 166.157 134.731 166.173 134.71 166.187C134.703 166.19 134.696 166.189 134.689 166.194C134.662 166.21 134.637 166.228 134.61 166.243H134.609L134.607 166.245C134.599 166.25 134.591 166.255 134.584 166.259C133.242 166.604 132.318 168.061 131.947 169.56C131.221 169.726 130.524 169.992 129.907 170.37C129.91 170.361 129.916 170.356 129.919 170.347C130.08 169.725 130.278 169.1 130.512 168.495C131.824 165.582 134.598 163.243 138.002 164.58C139.377 165.12 140.611 166.328 141.389 167.763C141.403 167.799 141.417 167.834 141.43 167.87C141.898 169.168 141.81 170.442 141.223 171.58L141.078 171.796C140.859 171.353 140.64 170.911 140.422 170.468C139.894 167.78 137.702 164.844 134.768 166.146ZM111.285 215.858C111.575 216.853 111.978 217.796 112.482 218.714C112.532 219.95 112.831 221.144 113.38 222.305C108.5 219.841 104.58 215.953 101.365 211.45C103.212 212.096 105.37 212.722 107.045 212.376C107.431 212.384 107.778 212.238 108.095 211.978C108.238 211.894 108.374 211.799 108.503 211.689C108.966 211.809 109.475 211.667 109.884 211.328C110.127 212.895 110.592 214.409 111.285 215.858ZM105.452 233.257C100.083 232.364 97.224 226.911 95.342 222.304C93.441 217.648 92.738 212.682 93.014 207.684C93.131 207.757 93.25 207.826 93.368 207.897C93.084 208.161 92.969 208.562 93.235 209.012C93.436 209.35 93.622 209.7 93.798 210.059C93.694 210.293 93.691 210.579 93.849 210.885C94.186 211.537 94.546 212.173 94.917 212.803C96.882 218.552 97.511 225.47 102.952 228.656C106.098 230.498 109.718 230.557 113.105 229.558C113.466 229.653 113.774 229.52 113.981 229.276C116.56 228.367 118.966 226.868 120.87 225.083C126.879 219.447 129.343 211.57 130.419 203.628C131.044 199.02 131.698 194.439 131.818 189.784C131.88 187.438 131.589 184.573 131.842 181.92C132.061 181.83 132.28 181.732 132.537 181.655C133.322 181.425 134.008 181.529 134.725 181.897C134.902 184.875 134.138 188.264 133.929 190.656C133.613 194.267 133.349 197.888 132.852 201.481C131.78 209.238 129.54 216.481 125.214 223.03C123.467 225.674 121.615 228.562 118.996 230.423C115.303 233.047 109.892 233.995 105.452 233.257ZM121.731 232.476C129.703 235.169 138.38 236.779 146.47 233.644C149.322 232.54 151.923 230.919 154.165 228.91C154.373 229.353 154.549 229.806 154.685 230.264C155.056 231.961 155.046 233.664 154.676 235.331C154.44 236.025 154.14 236.699 153.75 237.344C142.763 241.389 131.14 242.978 119.449 242.016C119.12 241.685 118.784 241.363 118.442 241.048C118.224 240.702 118.032 240.342 117.862 239.972C117.571 238.429 117.383 236.882 117.419 235.326C117.425 235.292 117.431 235.259 117.437 235.224C118.047 233.445 119.642 232.584 121.731 232.476ZM128.927 316.153C128.713 314.223 128.578 312.284 128.492 310.342C128.581 310.124 128.686 309.906 128.806 309.709C129.011 309.765 129.204 309.765 129.374 309.715C129.415 312.882 129.639 316.038 129.908 319.194C129.408 318.339 129.059 317.342 128.927 316.153ZM130.831 320.434C130.592 316.819 130.352 313.204 130.114 309.588C130.25 309.615 130.386 309.645 130.524 309.677C130.615 309.87 130.686 310.067 130.754 310.213C130.802 310.316 130.834 310.434 130.878 310.54C131.273 314.195 131.667 317.85 132.063 321.505C131.614 321.188 131.202 320.831 130.831 320.434ZM134.188 322.665C134.266 322.5 134.306 322.309 134.283 322.086C133.864 318.211 133.445 314.336 133.026 310.46C133.376 310.587 133.725 310.716 134.074 310.846C134.114 311.143 134.154 311.44 134.195 311.738C134.335 315.52 134.661 319.287 135.174 323.038C134.838 322.923 134.51 322.8 134.188 322.665ZM135.934 323.279C136.047 319.379 135.436 315.496 134.902 311.634C134.898 311.508 134.889 311.383 134.885 311.257C134.883 311.207 134.869 311.167 134.854 311.131C135.296 311.291 135.737 311.444 136.174 311.58C136.297 315.582 136.565 319.574 136.971 323.557C136.621 323.473 136.275 323.38 135.934 323.279ZM139.116 323.998C138.651 323.919 138.187 323.828 137.724 323.729C137.511 319.746 137.237 315.768 136.908 311.792C137.195 311.869 137.481 311.939 137.763 311.994C137.881 312.016 138.003 312.039 138.123 312.061C138.54 316.053 138.959 320.044 139.377 324.036C139.291 324.023 139.202 324.013 139.116 323.998ZM141.561 324.305C141.147 320.351 140.733 316.397 140.319 312.442C140.579 312.481 140.837 312.521 141.098 312.554C141.152 312.871 141.205 313.188 141.258 313.504C141.64 317.132 142.088 320.751 142.618 324.36C142.265 324.349 141.912 324.333 141.561 324.305ZM143.365 324.371C143.125 320.683 142.573 317.036 141.965 313.395C141.939 313.143 141.905 312.89 141.879 312.637C142.173 312.666 142.465 312.689 142.758 312.707C143.37 316.581 143.983 320.455 144.594 324.328C144.186 324.356 143.775 324.37 143.365 324.371ZM145.313 324.268C144.726 320.441 144.183 316.61 143.907 312.747C144.28 312.749 144.65 312.737 145.018 312.714C145.291 316.542 145.923 320.301 146.914 324.018C146.388 324.13 145.853 324.209 145.313 324.268ZM149.332 323.249C149.209 323.303 149.081 323.34 148.957 323.389C148.013 319.773 147.406 316.118 147.14 312.395C147.351 312.341 147.561 312.287 147.763 312.219C148.517 315.782 149.271 319.346 150.025 322.909C149.804 323.026 149.577 323.142 149.332 323.249ZM150.936 322.348C150.383 319.742 149.786 317.146 149.132 314.563C148.969 313.654 148.842 312.738 148.759 311.815C149.254 311.581 149.721 311.307 150.16 310.996C150.126 311.135 150.121 311.29 150.156 311.463C150.813 314.729 151.469 317.993 152.127 321.259C151.791 321.649 151.399 322.015 150.936 322.348ZM151.057 310.281C151.082 310.26 151.107 310.239 151.131 310.218C151.133 310.238 151.137 310.257 151.139 310.277C151.111 310.277 151.084 310.278 151.057 310.281ZM153.666 318.043C153.203 315.741 152.74 313.439 152.276 311.138C152.234 310.926 152.142 310.76 152.025 310.627C151.935 310.263 151.856 309.876 151.85 309.519C152.077 309.279 152.298 309.031 152.509 308.772C152.628 309.204 152.75 309.634 152.866 310.067C153.158 311.504 153.521 312.923 153.973 314.328C153.993 314.389 154.029 314.431 154.071 314.464C154.021 315.727 153.923 316.931 153.666 318.043ZM154.14 312.121C153.952 311.389 153.762 310.657 153.566 309.928C153.427 309.242 153.307 308.552 153.206 307.857C153.594 307.315 153.956 306.751 154.298 306.172C154.244 308.154 154.191 310.138 154.14 312.121ZM154.445 300.506C154.435 300.872 154.425 301.239 154.416 301.607C154.281 301.706 154.162 301.838 154.074 302.019C153.168 303.88 152.236 305.54 151.135 306.892C148.5 309.075 145.174 310.329 141.723 310.398C139.328 310.158 136.952 309.718 134.639 309.053C133.214 308.644 131.759 307.858 130.289 307.484C130.268 307.457 130.247 307.428 130.213 307.405C129.674 307.024 129.197 306.596 128.774 306.122C128.634 305.87 128.512 305.605 128.405 305.333C128.413 304.456 128.423 303.579 128.454 302.703C128.575 299.216 128.16 293.474 130.722 290.777C131.019 290.464 130.993 289.771 130.691 289.466C129.538 288.304 128.587 287.08 127.806 285.754C128.751 285.82 129.693 285.844 130.632 285.82C134.751 286.073 138.859 285.581 142.853 284.357C142.861 284.355 142.87 284.354 142.878 284.352L142.877 284.351C142.907 284.341 142.94 284.334 142.97 284.325C143.081 284.291 143.139 284.209 143.162 284.114C145.02 283.584 146.841 282.929 148.618 282.153C149.542 281.864 150.466 281.575 151.389 281.285C155.117 286.769 154.615 294.053 154.445 300.506ZM154.989 265.472C154.206 268.762 153.147 271.987 151.759 275.117C149.835 278.307 146.96 280.793 142.604 281.904C138.5 282.95 134.11 282.609 130.021 281.675C127.63 281.128 125.205 280.361 122.967 279.342C119.449 277.741 119.17 274.215 118.463 270.808C118.365 270.338 118.266 269.867 118.168 269.395C121.716 270.647 125.411 271.023 129.16 270.495C130.527 270.302 130.204 268.182 128.836 268.374C125.156 268.894 121.598 268.47 118.142 267.108C117.979 267.044 117.825 267.02 117.68 267.028C117.303 265.17 116.944 263.3 116.634 261.428C116.696 261.465 116.76 261.5 116.833 261.529C127.615 265.696 139.509 266.437 150.67 263.306C152.108 262.902 154.041 262.551 155.482 261.699C155.356 262.953 155.197 264.219 154.989 265.472ZM155.975 252.217C155.842 255.28 156.215 258.712 152.955 260.349C150.798 261.434 147.996 261.843 145.627 262.278C136.206 264.009 126.537 262.978 117.623 259.533C117.09 259.327 116.644 259.55 116.394 259.915C116.214 258.702 116.06 257.49 115.943 256.279C115.657 253.334 117.329 253.372 118.672 251.383C121.737 251.755 124.814 252.013 127.901 252.097C130.492 252.167 133.058 252.18 135.328 250.772C135.595 250.607 135.43 250.164 135.144 250.139C134.255 250.063 133.365 249.984 132.475 249.895C132.288 249.775 132.055 249.71 131.776 249.745C131.638 249.761 131.503 249.765 131.366 249.779C127.429 249.342 123.535 248.636 119.933 246.946C119.604 246.44 119.316 245.91 119.07 245.356C119.041 244.954 119.047 244.546 119.071 244.136C131.525 245.187 143.955 243.418 155.616 238.942C156.024 243.354 156.169 247.782 155.975 252.217ZM155.381 236.73C155.388 236.717 155.397 236.706 155.403 236.694C155.403 236.703 155.404 236.712 155.404 236.72C155.396 236.724 155.388 236.727 155.381 236.73ZM157.068 228.265C157.07 228.266 157.071 228.266 157.073 228.267C157.073 228.276 157.073 228.284 157.073 228.292C157.072 228.283 157.07 228.273 157.068 228.265ZM160.32 212.491C159.494 220.551 154.417 227.617 147.086 231.041C139.081 234.779 130.231 233.112 122.197 230.367C122.743 229.835 123.271 229.275 123.775 228.672C123.908 228.768 124.07 228.839 124.271 228.863C132.068 229.834 140.681 230.757 147.75 226.535C152.748 223.55 155.981 218.327 157.319 212.749C160.616 198.995 151.843 186.669 140.921 179.261C140.905 179.229 140.892 179.195 140.877 179.161C140.92 179.08 140.932 178.979 140.877 178.862C140.777 178.647 140.698 178.431 140.625 178.214C140.619 177.976 140.675 177.746 140.809 177.534C141.036 177.336 141.276 177.153 141.534 176.987C141.553 176.997 141.565 177.009 141.587 177.017C142.114 177.189 142.63 177.383 143.143 177.589C146.781 181.177 150.594 184.615 153.472 188.829C157.798 195.164 161.108 204.807 160.32 212.491ZM184.023 219.2C179.246 213.465 172.347 209.942 168.164 203.658C167.828 203.048 167.512 202.429 167.214 201.802C166.912 201.037 166.716 200.239 166.751 199.396C166.754 199.32 166.766 199.246 166.772 199.169C170.248 193.151 172.674 186.658 174.006 179.78C174.014 179.764 174.025 179.754 174.03 179.735C174.04 179.706 174.043 179.675 174.052 179.645C174.052 179.645 174.052 179.644 174.052 179.642C174.432 178.363 173.981 177.003 172.862 176.246C172.629 176.087 172.348 176.226 172.295 176.492C172.097 177.491 171.97 178.497 171.879 179.508C170.569 186.271 168.149 192.639 164.675 198.528C164.303 195.132 163.931 191.735 163.559 188.339C163.537 188.141 163.471 187.983 163.379 187.853C163.295 186.73 163.014 185.668 162.489 184.634C162.399 184.456 162.205 184.38 162.017 184.453C161.337 184.722 161.309 185.393 161.327 186.045C161.347 186.736 161.419 187.424 161.519 188.108C161.449 188.268 161.414 188.452 161.437 188.664C161.904 192.928 162.372 197.191 162.838 201.456C162.73 201.618 162.632 201.784 162.522 201.946C162.495 201.986 162.478 202.026 162.457 202.066C162.178 202.167 161.943 202.348 161.775 202.591C161.712 202.601 161.65 202.612 161.585 202.616C161.572 202.617 161.565 202.623 161.553 202.625C160.657 198.855 159.229 195.186 157.619 191.82C154.18 184.623 147.906 179.671 142.541 173.962C142.819 173.473 143.033 172.968 143.183 172.455C144.301 169.363 143.241 166.514 141.045 164.646C141.017 164.609 140.996 164.568 140.967 164.531C139.64 162.865 137.578 161.804 135.437 162.318C135.3 162.351 135.169 162.4 135.036 162.441C136.027 161.688 137.079 161 138.21 160.38C139.142 159.869 140.136 159.386 141.069 158.823C141.132 158.84 141.199 158.855 141.272 158.862C141.801 158.908 142.339 158.907 142.877 158.864C144.699 159.652 147.574 159.195 149.094 158.669C151.719 157.76 153.493 155.463 154.075 152.786C154.087 152.73 154.096 152.674 154.105 152.618C154.695 150.848 154.689 148.907 153.902 147.126C152.537 144.04 149.361 142.318 146.034 142.959C144.055 143.34 142.447 144.414 141.213 145.851C140.234 146.96 139.496 148.301 139.014 149.707C132.087 152.415 126.741 157.815 122.789 164.053C120.418 167.796 118.494 171.798 116.65 175.821C115.454 178.431 114.233 182.381 112.308 185.386C112.115 185.799 111.898 186.2 111.653 186.601C111.453 186.925 110.987 186.675 111.009 186.347C111.181 183.809 111.312 181.281 111.057 178.762C111.027 178.653 111.001 178.544 110.968 178.435C110.249 176.086 109.696 174.013 109.373 171.828C109.386 171.677 109.402 171.531 109.423 171.39C109.541 170.878 109.754 170.41 110.057 169.99C110.168 169.913 110.286 169.843 110.407 169.777C112.585 169.823 114.701 169.121 116.458 167.653C117.101 167.116 116.855 166.293 116.328 165.924C116.285 165.716 116.095 165.547 115.862 165.682C115.835 165.698 115.797 165.719 115.765 165.736C115.549 165.734 115.323 165.805 115.107 165.985C114.986 166.087 114.857 166.172 114.732 166.264C113.708 166.746 112.285 167.307 111.083 167.452C109.779 166.725 109.248 165.506 109.12 164.133C109.148 163.184 109.197 162.236 109.274 161.29C109.41 160.448 109.595 159.635 109.751 158.924C110.266 156.577 111.003 154.23 112.149 152.106C112.515 151.546 112.88 150.985 113.247 150.425C113.337 150.291 113.431 150.16 113.52 150.028C113.542 150.001 113.566 149.976 113.588 149.949C114.276 149.336 114.927 148.686 115.538 147.999C116.102 147.512 116.697 147.039 117.323 146.544C117.554 146.361 117.766 146.155 117.936 145.936C118.447 145.461 118.865 144.902 119.12 144.167C119.193 143.957 119.069 143.7 118.83 143.68C118.614 143.662 118.408 143.666 118.207 143.679C118.144 143.639 118.068 143.616 117.976 143.63C117.89 143.642 117.812 143.662 117.73 143.678C117.687 143.678 117.647 143.686 117.607 143.702C117.582 143.707 117.554 143.711 117.529 143.717C117.455 143.693 117.372 143.695 117.289 143.739C117.231 143.771 117.18 143.806 117.123 143.839C116.494 144.063 115.981 144.434 115.55 144.965C114.892 145.504 114.225 146.029 113.531 146.524C112.773 147.065 111.432 148.326 110.517 148.455C110.492 148.459 110.478 148.462 110.456 148.466C110.386 146.412 109.992 144.431 109.249 142.474C109.17 142.267 109.045 142.134 108.905 142.031C108.798 141.691 108.647 141.405 108.435 141.243C108.315 141.061 108.184 140.886 108.034 140.722C107.889 140.562 107.598 140.53 107.469 140.735C107.465 140.741 107.463 140.747 107.459 140.753C107.313 140.766 107.185 140.858 107.179 141.052C107.099 143.555 107.155 146.13 106.696 148.604C105.736 150.788 104.015 152.515 101.795 153.525C100.751 152.248 99.401 151.233 97.852 150.591C96.51 149.874 95.025 149.642 93.516 149.785C93.1 149.75 92.67 149.741 92.218 149.786C92.005 149.807 91.828 150.089 91.946 150.286C92.531 151.274 93.649 151.43 94.687 151.741C94.834 151.907 95.041 152.032 95.317 152.076C95.463 152.099 95.606 152.132 95.749 152.163C96.087 152.323 96.416 152.496 96.732 152.69C98.616 154.086 100.046 156.034 100.815 158.245C100.919 158.724 101.012 159.206 101.09 159.69C101.093 159.747 101.104 159.802 101.106 159.859C101.167 161.186 101.09 163.791 99.704 164.533C99.072 164.871 98.296 164.787 97.583 164.576C96.456 163.644 95.204 162.877 93.857 162.286C92.531 161.609 90.024 160.607 88.87 161.822C88.782 161.914 88.79 162.071 88.832 162.18C89.104 162.883 89.526 162.961 90.189 163.272C91.224 163.758 92.247 164.209 93.236 164.777C94.335 165.59 95.41 166.434 96.459 167.316C96.499 167.349 96.541 167.37 96.583 167.381C97.175 168.009 97.7 168.697 98.146 169.454C94.597 168.436 90.908 169.395 87.51 170.954C85.109 171.787 82.875 173.077 80.929 174.746C77.898 176.907 75.283 179.679 74.735 183.511C73.465 181.591 72.401 179.532 71.597 177.335C70.655 174.755 70.023 172.052 69.822 169.308C69.558 165.715 70.48 163.661 72.263 160.75C73.62 159.578 75.08 159.124 76.573 159.155C76.616 159.181 76.666 159.199 76.728 159.206C77.73 159.302 78.709 159.497 79.652 159.826C80.142 160.018 80.631 160.243 81.116 160.498C81.305 160.618 81.499 160.738 81.699 160.817C81.791 160.87 81.884 160.92 81.975 160.974C82.103 161.05 82.231 161.035 82.336 160.979C82.543 160.94 82.698 160.716 82.593 160.481C82.581 160.432 82.57 160.383 82.558 160.335C82.554 160.316 82.542 160.299 82.536 160.281C82.527 160.198 82.494 160.114 82.419 160.045C82.136 159.786 81.853 159.527 81.569 159.269C81.526 159.23 81.484 159.189 81.439 159.151C81.437 159.149 81.433 159.146 81.431 159.144C81.425 159.138 81.424 159.13 81.417 159.124C80.56 158.27 79.617 157.58 78.488 157.123C76.721 156.408 75.071 156.056 74.487 154.324C74.442 153.723 74.421 153.123 74.424 152.524C74.595 149.642 75.532 146.82 76.586 144.084C77.322 142.78 78.175 141.542 79.162 140.414C79.638 139.871 80.191 139.364 80.746 138.851C80.802 138.84 80.858 138.816 80.911 138.761C83.85 135.709 87.833 139.763 90.166 141.627C90.392 141.808 90.813 141.588 90.731 141.285C90.715 141.229 90.693 141.18 90.676 141.125C90.766 141.03 90.805 140.896 90.726 140.759C90.71 140.732 90.693 140.707 90.677 140.68L90.676 140.679C90.434 140.264 90.178 139.862 89.912 139.469C89.775 139.253 89.629 139.043 89.472 138.841C89.092 138.32 88.689 137.821 88.266 137.341C88.26 137.33 88.258 137.319 88.252 137.307C87.78 136.405 87.034 135.71 86.165 135.282C85.937 135.089 85.705 134.902 85.469 134.719C85.053 134.228 84.66 133.72 84.303 133.183C84.277 133.128 84.246 133.076 84.222 133.019C83.314 130.926 84.027 128.661 84.764 126.641C84.809 126.521 84.785 126.417 84.731 126.334C85.752 124.427 87.354 122.796 89.344 121.533C89.838 121.219 90.192 120.842 90.482 120.431C90.884 120.176 91.24 119.865 91.507 119.398C91.834 118.829 91.886 118.011 92.067 117.292C92.094 117.244 92.117 117.195 92.146 117.146C93.536 114.847 95.846 113.238 98.532 113.477C107.062 123.387 119.842 130.012 133.068 129.31C143.485 128.757 154.762 122.752 159.032 113.426C160.048 111.591 160.735 109.578 161.042 107.473C161.702 105.012 161.859 102.423 161.476 99.824C161.457 99.695 161.392 99.616 161.31 99.572C161.202 96.384 160.39 93.239 159.581 90.156C159.306 89.106 159.017 88.059 158.715 87.017C159.644 86.537 160.595 86.145 161.571 85.845C164.76 85.438 167.978 85.427 171.159 85.827C171.146 86.029 171.1 86.246 171.032 86.465C169.779 87.877 168.733 89.452 167.907 91.181C167.885 91.229 167.872 91.276 167.856 91.324C167.293 92.278 166.52 93.702 166.738 94.582C167.128 96.159 168.578 94.008 169.498 92.431C169.66 92.329 169.803 92.181 169.903 91.971C170.937 89.804 172.391 87.912 174.196 86.334C175.582 86.626 176.957 86.998 178.314 87.453C181.716 88.594 184.949 90.198 187.881 92.27C190.2 93.909 192.306 96.416 195.211 96.983C196.277 97.191 197.285 97.151 198.289 97.213C196.59 98.36 195.057 100.14 194.006 101.736C193.295 102.815 192.774 103.967 192.461 105.175C192.448 105.224 192.436 105.275 192.425 105.324C192.188 106.299 192.084 107.308 192.149 108.349C192.169 108.674 192.598 108.723 192.777 108.519C192.87 108.536 192.967 108.526 193.053 108.456C194.588 107.217 195.032 104.751 196.125 103.146C197.34 101.361 199.074 100.135 200.471 98.563C200.753 98.39 201.039 98.223 201.336 98.068C203.14 99.11 203.984 100.678 205.272 102.331C207.246 104.865 210.096 106.101 212.669 107.908C218.533 112.027 222.846 117.831 225.383 124.471C225.176 126.658 222.988 127.915 221.46 129.246C221.383 129.314 221.311 129.39 221.233 129.458C220.469 130.079 219.77 130.771 219.134 131.528C218.845 131.841 218.545 132.145 218.271 132.471C216.222 134.902 214.677 137.679 213.833 140.749C213.83 140.761 213.833 140.771 213.831 140.782C207.829 139.299 202.477 136.248 198.135 131.874C197.186 127.366 197.992 122.821 199.435 118.478C199.768 117.475 200.132 116.482 200.509 115.495C200.628 115.181 200.834 114.789 201.03 114.385C201.034 114.379 201.038 114.373 201.042 114.367C201.139 114.231 201.196 114.094 201.226 113.958C201.399 113.558 201.531 113.165 201.522 112.836C201.508 112.273 201.234 111.854 200.582 111.962C199.463 112.148 198.357 114.294 197.861 115.156C197.243 116.23 196.757 117.371 196.345 118.538C194.802 122.416 194.254 126.601 194.757 130.858C192.579 131.197 190.343 131.389 188.234 130.7C186.695 130.198 185.52 129.185 184.319 128.194C183.406 126.622 182.843 124.972 182.581 123.298C182.275 120.639 182.568 117.987 183.422 115.481C183.943 114.058 184.649 112.68 185.517 111.387C185.949 110.744 187.702 108.528 186.695 107.768C186.018 107.258 185.133 108.157 184.518 108.969C184.444 109.029 184.372 109.097 184.308 109.186C180.687 114.16 179.54 120.137 180.922 126.021C176.678 124.344 170.609 125.049 168.576 120.2C168.555 120.15 168.527 120.109 168.503 120.066C169.072 116.521 169.641 112.977 170.21 109.432C170.229 109.316 170.224 109.21 170.207 109.109C170.282 108.54 170.266 107.997 170.131 107.349C170.075 107.081 169.776 106.957 169.552 107.125C169.078 107.482 168.746 107.94 168.491 108.447C168.344 108.553 168.221 108.706 168.147 108.912C167.532 110.609 166.917 112.306 166.302 114.003C166.022 114.774 165.745 115.546 165.463 116.317C165.378 116.547 164.461 119.144 163.785 118.753C163.729 118.696 163.671 118.648 163.616 118.59C162.659 117.579 161.187 118.79 161.948 119.941C162.149 120.246 162.399 120.462 162.666 120.634C163.78 121.668 165.002 122.496 166.416 123.139C166.687 123.262 166.933 123.262 167.144 123.188C170.231 129.03 171.781 135.553 173.542 141.9C173.982 143.487 174.563 145.115 174.737 146.759C174.903 148.326 174.501 149.885 174.671 151.445C174.762 152.285 175.053 153.016 175.433 153.7C172.165 158.709 168.157 163.056 163.392 166.704C163.275 166.794 163.191 166.895 163.126 167C162.09 167.708 160.86 168.783 161.601 169.593C162.446 170.517 163.986 169.25 164.869 168.271C169.001 165.088 172.599 161.376 175.64 157.183C175.831 158.584 175.957 159.991 176.006 161.405C175.766 164.779 175.336 168.127 174.138 171.313C173.823 171.882 173.614 172.468 173.483 173.139C173.426 173.427 173.75 173.594 173.985 173.508C174.551 173.3 175.048 173.037 175.497 172.707C175.54 172.685 175.58 172.657 175.622 172.633C177.6 172.347 177.629 169.445 177.837 167.812C178.226 164.754 178.239 161.69 177.953 158.641C178.181 159.403 178.407 160.166 178.634 160.929C178.783 161.431 178.935 162.581 179.74 162.309C180.386 162.091 180.349 161.045 180.368 160.517C180.383 160.079 180.354 159.649 180.307 159.223C186.494 164.428 192.68 169.633 198.866 174.838C202.182 177.629 205.529 180.305 207.606 184.194C209.372 187.502 210.902 190.749 213.178 193.758C213.961 194.795 214.795 195.993 215.7 197.142C212.896 201.936 209.556 206.335 205.754 210.273C205.673 210.263 205.586 210.289 205.507 210.369C200.032 215.843 193.573 220.147 186.43 223.112C185.753 221.732 185.012 220.387 184.023 219.2ZM75.526 156.788C75.537 156.794 75.547 156.8 75.556 156.806C75.549 156.806 75.541 156.805 75.534 156.804C75.532 156.798 75.529 156.793 75.526 156.788ZM201.105 236.178C200.726 235.393 200.365 234.523 199.925 233.763C203.875 231.583 207.338 228.775 210.304 225.339C210.431 225.191 210.501 225.038 210.533 224.888C210.977 224.202 211.208 223.424 211.225 222.517C211.227 222.479 211.215 222.449 211.207 222.415C211.225 222.327 211.249 222.243 211.264 222.152C211.326 221.774 210.837 221.646 210.62 221.898C210.055 222.557 209.469 223.194 208.875 223.823C208.769 223.884 208.666 223.961 208.572 224.068C208.293 224.392 208.004 224.704 207.715 225.015C205.829 226.89 203.811 228.617 201.668 230.195C200.629 230.896 199.549 231.544 198.426 232.138C197.947 231.894 197.42 231.812 196.848 231.799C194.168 231.736 192.315 232.222 190.274 229.896C189.471 228.981 188.833 227.952 188.258 226.874C188.282 226.846 188.305 226.815 188.321 226.776C188.573 226.153 188.956 225.608 189.432 225.152C190.248 224.721 191.054 224.274 191.851 223.813C192.336 223.558 192.81 223.283 193.269 222.982C203.078 217.008 211.265 208.773 217.166 198.843C217.894 199.603 218.664 200.282 219.503 200.78C220.185 201.184 220.936 201.37 221.685 201.556C221.635 201.605 221.595 201.667 221.583 201.754C221.042 205.839 220.438 209.971 218.29 213.567C218.239 213.652 218.227 213.734 218.235 213.81C218.235 213.813 218.235 213.816 218.235 213.82C218.238 213.84 218.243 213.859 218.249 213.878C218.272 213.999 218.349 214.115 218.462 214.146C219.433 214.408 220.229 213.692 220.847 212.916C220.864 212.909 220.879 212.895 220.895 212.884C221.146 212.8 221.374 212.624 221.521 212.331C223.062 209.262 223.904 205.963 224.023 202.532C224.024 202.505 224.019 202.482 224.019 202.457C225.669 203.525 226.607 205.249 227.448 207.003C228.69 209.597 229.767 212.264 230.692 214.983C226.871 228.239 213.968 234.583 201.105 236.178ZM209.889 223.793C209.908 223.773 209.924 223.753 209.942 223.734C209.932 223.756 209.924 223.78 209.915 223.803C209.906 223.8 209.897 223.797 209.889 223.793ZM206.104 242.479C204.786 241.111 203.499 239.7 202.362 238.174C214.7 236.424 227 230.291 231.778 218.424C233.255 223.529 234.221 228.787 234.744 234.069C234.76 234.232 234.806 234.368 234.87 234.484C234.88 234.716 234.888 234.949 234.893 235.182C233.324 243.204 227.538 250.525 218.53 250.081C213.161 249.816 209.613 246.121 206.104 242.479ZM227.719 267.905C226.85 267.294 226.14 266.508 225.526 265.637C226.342 266.049 227.181 266.39 228.028 266.689C228.163 267.276 228.32 267.855 228.505 268.425C228.234 268.256 227.972 268.083 227.719 267.905ZM229.452 268.993C229.205 268.328 228.996 267.652 228.822 266.965C229.134 267.062 229.448 267.141 229.761 267.223C229.95 267.987 230.159 268.744 230.388 269.495C230.069 269.332 229.757 269.165 229.452 268.993ZM231.266 269.922C231 269.095 230.762 268.26 230.547 267.419C230.865 267.489 231.186 267.547 231.506 267.603C231.86 268.687 232.344 269.705 232.969 270.661C232.389 270.426 231.818 270.181 231.266 269.922ZM235.938 271.727C235.685 271.232 235.448 270.73 235.226 270.222C235.219 270.207 235.213 270.193 235.206 270.178C234.883 269.434 234.591 268.677 234.336 267.905C234.844 267.926 235.352 267.932 235.859 267.919C236.162 268.82 236.478 269.717 236.812 270.607C236.987 271.133 237.179 271.655 237.408 272.169C236.918 272.027 236.426 271.882 235.938 271.727ZM238.318 272.415C238.289 272.36 238.266 272.305 238.239 272.25C237.746 270.812 237.356 269.354 237.063 267.866C237.554 267.827 238.044 267.768 238.533 267.697C238.754 269.525 239.316 271.253 240.173 272.868C239.561 272.731 238.939 272.578 238.318 272.415ZM226.9 263.951C226.591 263.798 226.284 263.634 225.976 263.462C225.96 263.447 225.952 263.431 225.934 263.418C224.887 262.665 223.898 261.847 222.945 260.982C221.558 258.33 220.305 255.617 219.134 252.863C219.13 252.853 219.124 252.847 219.12 252.838C219.073 252.629 219.026 252.42 218.971 252.213C218.968 252.202 218.964 252.191 218.96 252.18C220.567 252.239 222.261 252.031 224.059 251.492C230.33 249.613 234.412 244.504 236.279 238.575C239.259 242.448 254.84 244.96 258.892 245.339C258.331 246.176 257.868 247.176 257.493 248.193C254.635 255.95 248.194 262.748 240.621 265.069C236.029 265.89 231.321 265.503 226.9 263.951ZM244.377 273.621C243.916 273.56 243.438 273.486 242.952 273.406C242.919 273.315 242.877 273.224 242.816 273.135C241.59 271.355 240.888 269.393 240.644 267.285C241.154 267.162 241.66 267.025 242.162 266.867C242.716 269.264 243.591 271.521 244.811 273.67C244.666 273.653 244.521 273.641 244.377 273.621ZM245.778 273.765C244.724 271.41 243.727 269.047 243.139 266.53C243.785 266.296 244.424 266.041 245.052 265.75C245.728 268.557 246.686 271.25 247.951 273.845C247.227 273.849 246.501 273.821 245.778 273.765ZM250.274 273.71C250.27 273.7 250.269 273.691 250.263 273.683C248.81 270.853 247.722 267.91 247.023 264.804C247.017 264.777 247.005 264.754 246.998 264.728C247.436 264.474 247.867 264.21 248.289 263.928C248.695 265.585 249.267 267.176 249.947 268.725C250.59 270.327 251.323 271.894 252.151 273.423C251.532 273.548 250.906 273.642 250.274 273.71ZM253.017 273.232C251.444 270.216 250.14 267.092 249.121 263.843C249.096 263.76 249.048 263.711 248.994 263.677C248.974 263.607 248.955 263.535 248.936 263.465C249.158 263.306 249.384 263.156 249.602 262.989C249.904 262.757 250.191 262.51 250.482 262.264C251.74 265.814 253.175 269.285 254.801 272.686C254.217 272.897 253.622 273.082 253.017 273.232ZM256.771 271.833C255.036 268.207 253.515 264.5 252.198 260.702C252.526 260.373 252.844 260.032 253.156 259.687C254.165 263.733 255.948 267.486 258.451 270.832C257.908 271.202 257.35 271.537 256.771 271.833ZM260.501 269.162C260.049 269.604 259.572 270.005 259.08 270.379C256.89 266.762 255.299 262.853 253.841 258.891C254.237 258.419 254.619 257.936 254.987 257.44C256.275 261.599 258.125 265.476 260.557 269.104C260.537 269.122 260.52 269.143 260.501 269.162ZM262.021 267.446C259.621 263.793 257.821 259.849 256.664 255.618C256.624 255.472 256.56 255.348 256.481 255.241C256.641 254.981 256.794 254.717 256.948 254.453C258.376 258.541 260.511 262.288 263.304 265.607C262.908 266.243 262.482 266.857 262.021 267.446ZM263.736 264.882C261.345 261.278 259.246 257.509 257.439 253.579C257.634 253.219 257.83 252.858 258.011 252.491C258.072 252.37 258.131 252.235 258.19 252.093C260.247 255.901 262.35 259.682 264.509 263.432C264.267 263.924 264.008 264.407 263.736 264.882ZM264.905 262.612C263.099 258.883 260.991 255.324 258.838 251.789C258.734 251.596 258.625 251.405 258.523 251.212C258.75 250.564 258.987 249.83 259.262 249.115C261.395 253.031 263.53 256.947 265.663 260.864C265.424 261.453 265.172 262.036 264.905 262.612ZM266.66 258.224C264.703 254.632 262.747 251.04 260.789 247.449C260.671 247.231 260.508 247.083 260.327 246.99C260.531 246.702 260.756 246.453 261.002 246.254C261.912 247.398 262.754 248.585 263.536 249.81C264.765 252.072 265.996 254.332 267.225 256.593C267.041 257.134 266.854 257.678 266.66 258.224ZM267.727 255.34C266.09 252.029 264.248 248.834 262.196 245.761C262.589 245.733 263.023 245.813 263.509 246.035C266.492 247.399 267.678 252.132 267.748 255.31C267.74 255.319 267.734 255.331 267.727 255.34Z" fill="#2CFFEA"/>
<path d="M155.56 135.192C156.572 135.026 157.307 133.973 157.087 132.971C156.992 132.536 156.74 132.168 156.41 131.895C156.563 131.685 156.514 131.341 156.193 131.345C155.964 131.348 155.735 131.376 155.509 131.421C155.495 131.418 155.484 131.412 155.47 131.409C154.511 131.193 153.539 131.663 153.244 132.629C152.965 133.545 153.372 134.622 154.288 134.986C154.427 135.041 154.573 135.072 154.722 135.093C154.984 135.195 155.268 135.24 155.56 135.192ZM154.594 134.166C154.553 134.128 154.516 134.085 154.481 134.041C154.363 133.871 154.289 133.671 154.282 133.471C154.282 133.459 154.281 133.448 154.282 133.435C154.282 133.375 154.289 133.315 154.302 133.257C154.304 133.245 154.308 133.235 154.31 133.223C154.328 133.157 154.353 133.093 154.388 133.032C154.438 132.947 154.505 132.876 154.578 132.812C154.896 132.736 155.231 132.712 155.519 132.842C156.241 133.167 155.873 134.129 155.215 134.269C154.997 134.317 154.782 134.271 154.594 134.166Z" fill="#2CFFEA"/>
<path d="M162.798 144.108C163.836 143.994 164.636 143.406 165.168 142.582C165.743 142.034 166.15 141.345 166.236 140.408C166.463 137.96 165.478 135.095 164.815 132.768C164.268 130.847 163.785 128.122 162.276 126.683C161.426 125.873 160.434 125.804 159.445 126.042C156.455 126.394 153.689 127.415 151.166 129.093C151.052 129.17 151.02 129.284 151.037 129.396C150.217 130.141 149.752 131.124 149.977 132.461C150.412 135.033 151.572 137.704 152.485 140.138C153.161 141.94 153.782 145.16 155.471 146.317C157.143 147.46 161.42 145.869 162.798 144.108ZM159.588 127.424C160.94 127.504 160.935 128.581 161.166 129.495C161.512 130.853 161.856 132.211 162.201 133.569C162.639 135.291 164.741 140.422 163.306 142.268C163.228 140.952 162.566 139.459 162.266 138.455C161.25 135.051 160.196 131.66 159.113 128.277C159.092 128.21 159.064 128.152 159.035 128.096C159.044 127.916 159.014 127.736 158.946 127.572C159.184 127.479 159.41 127.414 159.588 127.424ZM160.278 143.266C159.769 143.852 157.474 144.544 156.84 144.287C155.331 143.675 154.113 138.409 153.567 136.817C153.223 135.817 151.859 133.176 152.099 132.136C152.529 130.276 155.31 129.635 157.196 129.283C158.13 132.2 159.044 135.123 159.926 138.056C160.35 139.465 161.447 141.921 160.278 143.266Z" fill="#2CFFEA"/>
<path d="M158.555 138.181C158.295 137.782 157.931 137.543 157.533 137.466C157.483 137.266 157.297 137.109 157.069 137.238C156.894 137.336 156.733 137.455 156.58 137.583C156.356 137.685 156.143 137.833 155.959 138.041C155.943 138.058 155.934 138.079 155.919 138.096C155.449 138.46 155.108 139.007 155.041 139.591C154.895 140.86 155.958 141.701 157.134 141.476C157.608 141.559 158.117 141.476 158.562 141.19C159.854 140.359 159.46 138.904 158.555 138.181ZM157.313 140.329C156.838 140.396 156.575 140.122 156.494 139.771C156.464 139.391 156.707 139.006 157.144 138.875C157.281 138.834 157.41 138.832 157.532 138.848C157.537 138.851 157.543 138.851 157.549 138.854C158.238 139.182 158.068 140.222 157.313 140.329Z" fill="#2CFFEA"/>
<path d="M148.76 295.012C148.546 294.776 148.266 294.606 147.894 294.544C146.87 294.372 145.442 294.842 144.428 294.992C143.585 295.118 142.741 295.243 141.899 295.369C141.493 295.372 141.086 295.375 140.68 295.379C139.393 295.392 138.014 295.306 137.004 296.237C135.323 297.789 135.897 300.385 136.524 302.284C136.707 302.836 137.456 303.043 137.942 302.825C140.966 301.476 144.535 303.409 147.464 301.611C148.849 300.76 149.672 299.251 149.517 297.728C149.675 296.71 149.746 295.418 148.76 295.012ZM138.191 300.466C138.108 300.143 138.049 299.814 138.056 299.508C138.095 297.764 139.124 297.551 140.523 297.514C140.523 297.536 140.524 297.56 140.525 297.583C140.525 297.591 140.521 297.597 140.521 297.604C140.532 298.378 140.542 299.153 140.554 299.927C140.555 300.005 140.581 300.068 140.617 300.123C140.617 300.133 140.618 300.143 140.618 300.152C139.788 300.163 138.984 300.249 138.191 300.466ZM141.471 300.165C141.424 300.164 141.379 300.163 141.332 300.162C141.299 299.275 141.267 298.39 141.233 297.504C141.875 297.496 142.517 297.493 143.158 297.488C143.166 297.55 143.172 297.611 143.179 297.672C143.179 297.681 143.175 297.687 143.175 297.695C143.179 297.765 143.183 297.836 143.187 297.907C143.187 297.916 143.182 297.922 143.182 297.93C143.182 297.962 143.185 297.993 143.185 298.026C143.186 298.032 143.185 298.038 143.185 298.045C143.187 298.773 143.226 299.496 143.315 300.219C142.561 300.224 141.884 300.184 141.471 300.165ZM144.01 300.201C144.016 300.172 144.024 300.144 144.023 300.112C144.023 300.111 144.023 300.11 144.023 300.109C144.026 300.089 144.036 300.074 144.036 300.052C144.036 300.021 144.033 299.989 144.032 299.956H144.034C144.033 299.943 144.032 299.932 144.031 299.919C144.03 299.103 143.972 298.291 143.876 297.481C144.579 297.477 145.281 297.47 145.983 297.464C146.268 297.462 146.503 297.363 146.687 297.214C146.838 297.228 146.991 297.235 147.143 297.241C147.147 297.246 147.147 297.251 147.15 297.256C148.361 299.547 146.111 300.104 144.01 300.201Z" fill="#2CFFEA"/>
<path d="M167.842 153.961C168.155 153.761 168.469 153.55 168.767 153.319C168.809 153.296 168.85 153.273 168.893 153.249C169.684 152.856 170.571 152.37 170.786 151.689C170.851 151.481 170.861 151.239 170.837 150.977C170.844 150.958 170.858 150.942 170.864 150.923C170.913 150.762 170.917 150.567 170.903 150.36C170.946 149.921 170.905 149.465 170.773 149.04C170.617 148.538 170.289 147.802 169.898 147.216C169.753 146.909 169.583 146.672 169.393 146.487C169.381 146.46 169.372 146.427 169.359 146.401C168.986 145.625 168.484 145.677 167.767 145.859C167.568 145.813 167.346 145.805 167.082 145.857C166.358 146 165.624 146.421 164.934 146.767C164.634 146.881 164.335 146.996 164.039 147.12C161.735 147.59 159.383 148.433 158.315 150.697C157.266 152.92 158.037 155.533 160.448 156.387C163.052 157.31 165.935 155.666 167.842 153.961ZM168.149 147.241L168.563 147.387C169.014 148.074 169.351 149.113 169.572 149.686C169.644 149.873 169.705 150.037 169.76 150.193C169.656 150.616 169.422 150.982 169.088 151.299C169.043 149.929 168.191 148.533 167.198 147.411C167.515 147.31 167.842 147.223 168.149 147.241ZM161.238 154.392C159.357 153.722 159.863 151.581 161.095 150.531C162.3 149.504 164.023 149.276 165.527 149.028C165.601 149.016 165.668 148.996 165.731 148.973C166.092 149.373 166.436 149.798 166.669 150.277C167.216 151.396 166.88 151.911 165.988 152.686C164.844 153.682 162.832 154.959 161.238 154.392Z" fill="#2CFFEA"/>
<path d="M247.231 246.362C246.496 246.027 245.868 245.988 245.33 246.159C244.973 246.086 244.583 246.177 244.289 246.534C242.925 248.189 241.77 250 240.879 251.953C240.158 253.532 239.904 255.047 241.732 255.948C243.192 256.669 244.767 256.164 245.834 255.011C247.107 253.635 247.352 251.687 248.438 250.21C248.451 250.198 248.469 250.195 248.48 250.181C248.532 250.118 248.564 250.05 248.608 249.985C248.637 249.949 248.661 249.909 248.692 249.874C248.814 249.734 248.873 249.575 248.892 249.412C249.174 248.56 248.911 247.669 248.197 247.07C247.968 246.794 247.65 246.553 247.231 246.362ZM243.096 254.146C242.139 253.97 242.743 252.738 243.258 251.859C243.795 252.134 244.318 252.436 244.824 252.764C244.432 253.545 243.875 254.289 243.096 254.146ZM245.348 251.543C245.284 251.701 245.208 251.896 245.12 252.107C244.635 251.798 244.137 251.511 243.625 251.247C243.643 251.217 243.661 251.185 243.676 251.16C243.831 250.884 243.996 250.612 244.165 250.345C244.605 250.642 245.037 250.951 245.459 251.273C245.422 251.363 245.384 251.452 245.348 251.543ZM245.835 250.414C245.807 250.475 245.777 250.533 245.75 250.595C245.361 250.302 244.964 250.021 244.56 249.749C244.827 249.356 245.102 248.97 245.391 248.593C245.696 248.85 245.821 249.196 245.86 249.57C245.852 249.852 245.843 250.133 245.835 250.414Z" fill="#2CFFEA"/>
<path d="M212.285 195.923C212.057 193.49 210.532 191.686 208.252 191.104C207.629 189.421 206.382 187.94 205.243 186.591C203.118 184.074 200.797 181.72 198.346 179.521C197.357 178.632 196.057 177.003 194.627 176.458C194.698 174.647 192.445 173.612 191.195 172.71C191.052 172.607 190.907 172.546 190.765 172.518C190.472 172.426 190.14 172.44 189.822 172.641C187.177 174.301 185.504 176.712 183.798 179.273C181.669 182.466 179.493 185.639 177.421 188.871C176.108 190.92 172.684 197.785 177.351 198.532C177.905 198.621 178.411 198.477 178.874 198.192C178.926 198.25 178.987 198.305 179.058 198.357C181.944 200.461 184.83 202.564 187.717 204.668L192.587 208.218C193.295 208.734 194.086 209.517 194.926 210.03C196.145 211.954 197.564 215.191 200.178 214.068C201.448 213.522 202.83 211.559 203.716 210.546C205.405 208.612 206.945 206.554 208.464 204.485C210.262 202.034 212.591 199.185 212.285 195.923ZM178.674 195.109C176.964 195.378 177.362 193.445 177.719 192.606C178.176 191.531 178.884 190.547 179.526 189.574C180.644 187.877 181.776 186.187 182.902 184.493C185.131 181.138 187.16 177.203 190.465 174.789C191.346 175.326 192.119 175.694 191.897 176.796C191.693 177.798 190.548 178.94 189.98 179.713C188.769 181.362 187.558 183.012 186.346 184.661C185.135 186.311 183.923 187.961 182.712 189.61C182.17 190.349 179.576 194.969 178.674 195.109ZM180.388 196.67C181.037 195.781 181.573 194.787 182.018 194.181C184.306 191.065 186.594 187.95 188.882 184.833C189.958 183.367 191.035 181.9 192.111 180.435C192.465 179.952 193.053 179.331 193.573 178.667C193.658 178.677 193.743 178.68 193.829 178.67C193.894 178.663 193.959 178.655 194.024 178.649C194.087 178.641 194.142 178.627 194.198 178.612C194.564 178.876 195.107 179.36 195.66 179.875C190.892 185.709 186.125 191.543 181.357 197.377C181.034 197.14 180.711 196.905 180.388 196.67ZM193.402 206.262C192.813 205.806 192.241 205.31 191.692 204.909C188.586 202.644 185.48 200.381 182.373 198.117C182.388 198.104 182.403 198.097 182.416 198.082L196.644 180.809C197.039 181.188 197.373 181.512 197.553 181.678C199.375 183.346 201.106 185.118 202.738 186.973C203.528 187.871 204.522 188.876 205.153 189.899C205.274 190.095 205.37 190.28 205.469 190.466C203.795 193.096 202.111 195.719 200.365 198.302C198.457 201.124 196.585 204.444 193.525 206.152C193.472 206.182 193.434 206.22 193.402 206.262ZM193.994 206.695L193.992 206.693C193.992 206.693 193.995 206.691 193.997 206.69C193.995 206.691 193.995 206.693 193.994 206.695ZM194.611 207.084C197.09 204.895 199.168 202.188 201.212 199.602C203.069 197.251 204.751 194.784 206.109 192.116C206.392 193.406 206.124 194.632 205.39 196.246C204.466 198.282 202.845 200.24 201.55 202.054C200.474 203.563 199.212 206.005 197.708 207.085C196.652 207.843 195.613 207.642 194.611 207.084ZM204.813 205.785C203.643 207.31 202.441 208.817 201.133 210.227C200.489 210.919 199.857 212.077 198.79 211.817C198.586 211.768 198.09 211.066 197.594 210.3C198.275 209.915 198.782 209.157 199.439 208.354C201.708 205.575 203.825 202.671 205.773 199.66C206.952 197.837 208.518 195.805 208.643 193.551C209.915 194.424 210.227 196.352 209.918 197.715C209.658 198.859 209.082 199.828 208.456 200.809C207.358 202.528 206.053 204.167 204.813 205.785Z" fill="#2CFFEA"/>
<path d="M142.765 292.619C144.299 292.553 146.454 292.882 147.819 292.149C150.082 290.934 148.8 287.241 148.227 285.366C148.174 285.192 148.092 285.058 147.993 284.958C147.585 284.053 146.897 283.527 145.832 283.936C145.738 283.972 145.685 284.034 145.653 284.102C143.819 284.732 141.969 285.306 140.089 285.78C138.726 286.124 136.962 286.159 135.722 286.801C133.73 287.831 134.355 290.576 134.909 292.291C134.928 292.348 134.953 292.4 134.982 292.448C134.983 292.864 134.995 293.281 135.022 293.702C135.037 293.923 135.329 294.082 135.522 293.974C136.943 293.186 138.449 292.903 139.989 292.741C140.913 292.7 141.839 292.66 142.765 292.619ZM146.25 286.153C146.256 286.183 146.258 286.213 146.268 286.243C146.582 287.268 147.427 289.456 146.277 290.331C145.768 290.719 143.659 290.455 142.949 290.477C142.764 289.42 142.656 288.358 142.623 287.288C143.84 286.937 145.05 286.561 146.25 286.153ZM141.287 287.674C141.454 287.629 141.619 287.575 141.786 287.529C141.824 288.407 141.901 289.277 142.057 290.146C142.076 290.252 142.131 290.326 142.202 290.373C142.212 290.418 142.218 290.463 142.227 290.508C141.587 290.536 140.949 290.564 140.309 290.592C140.367 290.526 140.401 290.433 140.392 290.316C140.337 289.548 140.218 288.794 140.035 288.045C140.03 288.023 140.016 288.007 140.009 287.987C140.434 287.883 140.863 287.787 141.287 287.674ZM136.639 290.752C136.48 290.068 136.561 289.382 136.885 288.691C137.476 288.575 138.066 288.451 138.654 288.319C138.815 288.283 138.973 288.239 139.133 288.201C139.2 288.929 139.319 289.643 139.49 290.353C139.523 290.49 139.611 290.576 139.715 290.617C138.689 290.662 137.664 290.707 136.639 290.752Z" fill="#2CFFEA"/>
<path d="M241.655 246.465C242.258 244.951 240.052 242.959 238.595 242.779C238.394 242.754 238.111 242.783 237.867 242.873C237.568 242.862 237.267 242.988 237.049 243.325C235.608 245.533 233.128 247.173 232.563 249.879C232.13 251.949 232.78 253.908 234.677 254.93C235.115 255.166 235.65 254.9 235.938 254.568C237.049 253.284 238.16 252 239.272 250.714C240.113 249.742 241.18 248.751 241.54 247.473C241.638 247.126 241.673 246.787 241.655 246.465ZM234.891 252.509C233.946 251.549 234.5 250.097 235.466 248.667C235.979 249.134 236.486 249.607 236.986 250.088C236.287 250.895 235.589 251.702 234.891 252.509ZM237.449 249.552C236.933 249.056 236.412 248.566 235.883 248.085C236.063 247.844 236.25 247.606 236.44 247.373C236.974 247.871 237.521 248.353 238.084 248.82C237.872 249.064 237.662 249.309 237.449 249.552ZM238.547 248.28C237.983 247.812 237.432 247.328 236.896 246.828C237.051 246.646 237.204 246.47 237.353 246.3C237.745 246.141 238.143 246.031 238.562 245.974C238.74 246.084 238.956 246.148 239.208 246.135C240.289 246.084 238.852 247.908 238.547 248.28Z" fill="#2CFFEA"/>
<path d="M105.133 14.312C103.529 14.356 101.927 14.38 100.324 14.389C101.633 12.663 102.918 10.92 104.158 9.14101C105.163 7.69901 102.802 6.33501 101.804 7.76601C101.027 8.88001 100.236 9.98201 99.432 11.074C99.58 8.09901 99.728 5.124 99.878 2.149C99.965 0.396005 97.238 0.400005 97.151 2.149C96.992 5.341 96.833 8.53201 96.672 11.724C95.53 10.277 94.401 8.82001 93.23 7.39501C92.116 6.03901 90.198 7.97701 91.302 9.32301C92.664 10.98 93.984 12.667 95.305 14.355C92.591 14.307 89.877 14.216 87.164 14.066C85.412 13.969 85.417 16.695 87.164 16.792C89.703 16.932 92.241 17.018 94.78 17.068C93.761 18.321 92.728 19.563 91.67 20.786C90.527 22.107 92.447 24.043 93.598 22.713C94.507 21.662 95.402 20.6 96.284 19.528C96.116 22.888 95.948 26.249 95.78 29.61C95.693 31.363 98.419 31.359 98.506 29.61C98.679 26.153 98.851 22.696 99.024 19.238C99.92 20.439 100.832 21.626 101.708 22.842C102.724 24.252 105.09 22.893 104.062 21.466C103.004 19.997 101.906 18.56 100.821 17.112C102.259 17.101 103.696 17.077 105.134 17.037C106.884 16.989 106.891 14.263 105.133 14.312Z" fill="#2CFFEA"/>
<path d="M61.522 41.426C60.431 41.456 59.339 41.472 58.249 41.478C59.14 40.303 60.015 39.115 60.858 37.904C61.543 36.922 59.935 35.993 59.255 36.967C58.726 37.726 58.188 38.476 57.64 39.22C57.742 37.194 57.842 35.168 57.945 33.142C58.004 31.948 56.147 31.951 56.089 33.142C55.98 35.315 55.871 37.489 55.763 39.663C54.986 38.678 54.216 37.685 53.418 36.715C52.659 35.792 51.354 37.111 52.105 38.028C53.033 39.156 53.931 40.305 54.831 41.455C52.983 41.423 51.136 41.36 49.288 41.258C48.094 41.192 48.098 43.049 49.288 43.114C51.017 43.21 52.745 43.268 54.474 43.302C53.781 44.155 53.078 45.001 52.357 45.834C51.579 46.733 52.886 48.052 53.67 47.147C54.289 46.431 54.899 45.708 55.499 44.978C55.384 47.267 55.27 49.555 55.155 51.844C55.096 53.038 56.952 53.034 57.012 51.844C57.129 49.49 57.246 47.136 57.364 44.781C57.973 45.599 58.594 46.407 59.191 47.236C59.883 48.196 61.494 47.271 60.794 46.299C60.074 45.299 59.326 44.32 58.587 43.334C59.566 43.327 60.544 43.311 61.524 43.283C62.715 43.249 62.72 41.393 61.522 41.426Z" fill="#2CFFEA"/>
<path d="M181.091 34.103C180 34.133 178.908 34.149 177.818 34.155C178.709 32.98 179.584 31.793 180.428 30.582C181.113 29.6 179.504 28.671 178.824 29.645C178.296 30.403 177.758 31.154 177.209 31.897C177.311 29.871 177.412 27.846 177.514 25.82C177.573 24.626 175.717 24.629 175.658 25.82C175.55 27.993 175.44 30.167 175.332 32.341C174.555 31.355 173.785 30.363 172.988 29.393C172.229 28.47 170.923 29.789 171.675 30.706C172.603 31.834 173.502 32.984 174.401 34.133C172.554 34.1 170.706 34.038 168.858 33.936C167.665 33.87 167.669 35.726 168.858 35.792C170.587 35.887 172.316 35.946 174.045 35.98C173.352 36.833 172.648 37.679 171.927 38.512C171.15 39.411 172.456 40.73 173.24 39.825C173.859 39.109 174.468 38.386 175.068 37.656C174.954 39.945 174.839 42.233 174.725 44.521C174.665 45.715 176.521 45.712 176.581 44.521C176.698 42.167 176.815 39.813 176.933 37.458C177.543 38.275 178.164 39.084 178.761 39.912C179.452 40.872 181.064 39.947 180.363 38.975C179.643 37.975 178.895 36.996 178.156 36.01C179.135 36.002 180.113 35.986 181.093 35.959C182.283 35.926 182.288 34.07 181.091 34.103Z" fill="#2CFFEA"/>
<path d="M70.979 267.324C69.887 267.354 68.796 267.371 67.706 267.377C68.597 266.202 69.471 265.015 70.316 263.804C71.001 262.822 69.392 261.893 68.712 262.866C68.184 263.625 67.645 264.375 67.097 265.119C67.199 263.093 67.299 261.067 67.401 259.042C67.461 257.848 65.604 257.851 65.545 259.042C65.437 261.215 65.328 263.389 65.22 265.563C64.443 264.577 63.672 263.585 62.875 262.615C62.116 261.691 60.811 263.011 61.562 263.928C62.49 265.056 63.388 266.205 64.288 267.355C62.44 267.323 60.593 267.26 58.745 267.159C57.552 267.093 57.555 268.949 58.745 269.014C60.474 269.11 62.202 269.168 63.932 269.202C63.238 270.056 62.535 270.901 61.814 271.733C61.036 272.632 62.342 273.951 63.127 273.046C63.746 272.33 64.356 271.607 64.956 270.876C64.841 273.165 64.727 275.453 64.612 277.742C64.552 278.935 66.409 278.932 66.468 277.742C66.586 275.388 66.703 273.033 66.821 270.679C67.43 271.496 68.051 272.305 68.649 273.133C69.34 274.094 70.951 273.168 70.251 272.196C69.531 271.196 68.783 270.217 68.044 269.231C69.023 269.223 70.001 269.208 70.981 269.18C72.172 269.147 72.177 267.291 70.979 267.324Z" fill="#2CFFEA"/>
<path d="M283.021 185.626C281.93 185.656 280.838 185.672 279.748 185.678C280.639 184.503 281.513 183.316 282.358 182.105C283.042 181.124 281.434 180.194 280.754 181.168C280.226 181.926 279.687 182.677 279.139 183.42C279.241 181.395 279.341 179.368 279.443 177.343C279.503 176.149 277.646 176.153 277.587 177.343C277.479 179.517 277.37 181.69 277.262 183.864C276.485 182.879 275.715 181.886 274.917 180.916C274.158 179.993 272.853 181.312 273.604 182.229C274.532 183.358 275.43 184.506 276.33 185.657C274.482 185.624 272.635 185.561 270.787 185.46C269.594 185.395 269.597 187.25 270.787 187.316C272.516 187.411 274.244 187.469 275.973 187.504C275.28 188.358 274.577 189.203 273.856 190.036C273.078 190.935 274.385 192.254 275.169 191.349C275.788 190.633 276.397 189.91 276.998 189.18C276.883 191.468 276.769 193.756 276.654 196.045C276.594 197.238 278.451 197.235 278.511 196.045C278.627 193.691 278.745 191.336 278.863 188.982C279.472 189.799 280.093 190.608 280.691 191.436C281.382 192.396 282.993 191.471 282.293 190.499C281.573 189.498 280.825 188.52 280.086 187.534C281.065 187.526 282.043 187.51 283.023 187.482C284.213 187.449 284.218 185.593 283.021 185.626Z" fill="#2CFFEA"/>
<path d="M22.361 144.991C20.742 145.203 19.126 145.337 17.51 145.429C18.724 143.905 19.933 142.376 21.151 140.855C22.238 139.499 20.321 137.558 19.224 138.928C18.284 140.101 17.352 141.281 16.415 142.457C16.581 137.747 16.788 133.037 17.077 128.33C17.184 126.578 14.458 126.584 14.35 128.33C14.064 133.002 13.858 137.676 13.692 142.351C12.634 140.794 11.564 139.246 10.465 137.715C9.44899 136.303 7.084 137.663 8.111 139.091C9.629 141.204 11.099 143.348 12.537 145.513C10.297 145.471 8.055 145.343 5.807 145.07C4.07 144.859 4.084 147.587 5.807 147.796C7.818 148.04 9.824 148.159 11.828 148.219C10.601 149.763 9.37099 151.305 8.14299 152.848C7.06199 154.207 8.978 156.148 10.07 154.775C11.201 153.354 12.334 151.934 13.464 150.512C13.365 155.365 13.314 160.219 13.346 165.075C13.357 166.828 16.082 166.832 16.071 165.075C16.042 160.442 16.089 155.811 16.178 151.181C16.802 152.189 17.425 153.199 18.033 154.219C18.93 155.724 21.288 154.355 20.387 152.844C19.446 151.266 18.478 149.706 17.498 148.155C19.116 148.063 20.736 147.929 22.359 147.717C24.075 147.493 24.098 144.764 22.361 144.991Z" fill="#2CFFEA"/>
<path d="M292.195 124.846C290.576 125.058 288.96 125.192 287.343 125.284C288.558 123.759 289.767 122.23 290.985 120.709C292.071 119.353 290.155 117.412 289.058 118.782C288.118 119.955 287.186 121.136 286.249 122.311C286.414 117.601 286.622 112.892 286.91 108.184C287.018 106.433 284.292 106.439 284.184 108.184C283.898 112.856 283.692 117.53 283.526 122.205C282.468 120.647 281.398 119.099 280.298 117.569C279.283 116.157 276.918 117.516 277.944 118.944C279.463 121.057 280.932 123.201 282.371 125.366C280.13 125.323 277.889 125.196 275.641 124.923C273.903 124.712 273.918 127.44 275.641 127.649C277.652 127.893 279.658 128.013 281.662 128.073C280.434 129.617 279.205 131.159 277.976 132.702C276.895 134.061 278.812 136.003 279.904 134.63C281.035 133.209 282.168 131.789 283.298 130.366C283.199 135.219 283.147 140.073 283.179 144.93C283.191 146.683 285.916 146.687 285.905 144.93C285.875 140.297 285.923 135.666 286.011 131.036C286.636 132.044 287.258 133.054 287.866 134.073C288.764 135.578 291.121 134.209 290.22 132.698C289.28 131.12 288.312 129.561 287.331 128.01C288.95 127.918 290.569 127.784 292.193 127.572C293.908 127.347 293.932 124.619 292.195 124.846Z" fill="#2CFFEA"/>
<path d="M98.354 332.448C97.536 332.468 96.719 332.5 95.902 332.523C96.942 331.401 97.983 330.28 99.023 329.159C100.215 327.874 98.292 325.942 97.096 327.231C95.9 328.52 94.703 329.809 93.507 331.099C93.578 328.21 93.617 325.322 93.593 322.429C93.578 320.676 90.853 320.671 90.867 322.429C90.888 324.988 90.859 327.543 90.805 330.097C89.861 328.86 88.904 327.632 87.919 326.423C86.812 325.062 84.894 327 85.992 328.35C87.161 329.788 88.289 331.255 89.397 332.736C87.135 332.826 84.872 332.923 82.61 333.039C80.864 333.129 80.854 335.855 82.61 335.765C84.893 335.648 87.175 335.55 89.46 335.46C88.315 336.693 87.17 337.928 86.024 339.162C84.833 340.446 86.755 342.378 87.952 341.089C88.803 340.172 89.654 339.255 90.505 338.338C90.374 340.845 90.221 343.352 90.018 345.858C89.876 347.606 92.603 347.596 92.744 345.858C92.953 343.28 93.109 340.702 93.242 338.124C93.787 338.927 94.33 339.73 94.859 340.545C95.81 342.011 98.172 340.647 97.213 339.17C96.361 337.859 95.484 336.569 94.593 335.29C95.847 335.252 97.1 335.204 98.354 335.175C100.104 335.133 100.111 332.407 98.354 332.448Z" fill="#2CFFEA"/>
<path d="M210.699 298.56C209.882 298.58 209.064 298.612 208.247 298.635C209.287 297.513 210.328 296.392 211.368 295.271C212.56 293.986 210.638 292.054 209.441 293.343C208.244 294.632 207.048 295.921 205.852 297.211C205.923 294.322 205.962 291.434 205.939 288.541C205.923 286.788 203.199 286.783 203.213 288.541C203.234 291.1 203.204 293.654 203.151 296.209C202.206 294.972 201.249 293.744 200.264 292.535C199.157 291.174 197.24 293.112 198.337 294.462C199.506 295.9 200.635 297.367 201.742 298.848C199.48 298.938 197.217 299.034 194.955 299.151C193.209 299.241 193.199 301.967 194.955 301.877C197.238 301.759 199.521 301.662 201.805 301.572C200.66 302.805 199.515 304.04 198.37 305.274C197.178 306.558 199.101 308.49 200.297 307.201C201.148 306.284 201.999 305.367 202.85 304.45C202.719 306.957 202.566 309.464 202.364 311.97C202.221 313.718 204.948 313.708 205.089 311.97C205.298 309.392 205.454 306.814 205.587 304.236C206.132 305.039 206.675 305.842 207.204 306.657C208.155 308.123 210.517 306.759 209.558 305.281C208.707 303.971 207.829 302.681 206.938 301.402C208.191 301.364 209.445 301.316 210.699 301.287C212.45 301.244 212.457 298.519 210.699 298.56Z" fill="#2CFFEA"/>
<path d="M244.135 66.837C240.969 67.137 237.801 67.438 234.634 67.738C236.272 65.02 237.908 62.301 239.545 59.583C240.453 58.076 238.098 56.705 237.191 58.207C235.806 60.507 234.421 62.807 233.037 65.106C232.808 61.718 232.579 58.331 232.35 54.943C232.233 53.202 229.506 53.189 229.624 54.943C229.865 58.522 230.107 62.1 230.35 65.678C229.403 64.54 228.468 63.394 227.508 62.267C226.369 60.929 224.449 62.865 225.581 64.194C226.728 65.542 227.85 66.91 228.978 68.273C226.23 68.534 223.481 68.794 220.733 69.055C219.002 69.219 218.984 71.947 220.733 71.781C223.661 71.503 226.588 71.225 229.516 70.948C227.68 73.997 225.843 77.047 224.006 80.096C223.1 81.603 225.455 82.974 226.36 81.471C227.876 78.956 229.391 76.44 230.905 73.925C231.141 77.415 231.378 80.904 231.613 84.395C231.731 86.136 234.457 86.149 234.339 84.395C234.105 80.933 233.871 77.471 233.638 74.009C234.517 75.112 235.409 76.206 236.277 77.32C237.354 78.702 239.271 76.76 238.205 75.392C236.921 73.746 235.61 72.121 234.301 70.495C237.579 70.184 240.858 69.873 244.135 69.562C245.866 69.398 245.884 66.671 244.135 66.837Z" fill="#2CFFEA"/>
</g>
<defs>
<filter id="filter0_d_1_3" x="0.509491" y="0.835754" width="296.979" height="354.329" filterUnits="userSpaceOnUse" color-interpolation-filters="sRGB">
<feFlood flood-opacity="0" result="BackgroundImageFix"/>
<feColorMatrix in="SourceAlpha" type="matrix" values="0 0 0 0 0 0 0 0 0 0 0 0 0 0 0 0 0 0 127 0" result="hardAlpha"/>
<feOffset dy="4"/>
<feGaussianBlur stdDeviation="2"/>
<feComposite in2="hardAlpha" operator="out"/>
<feColorMatrix type="matrix" values="0 0 0 0 0 0 0 0 0 0 0 0 0 0 0 0 0 0 0.25 0"/>
<feBlend mode="normal" in2="BackgroundImageFix" result="effect1_dropShadow_1_3"/>
<feBlend mode="normal" in="SourceGraphic" in2="effect1_dropShadow_1_3" result="shape"/>
</filter>
</defs>
</svg>
